<svg xmlns="http://www.w3.org/2000/svg" width="64" height="64" viewBox="0 0 16 16" shape-rendering="crispEdges">
  <rect x="5" y="0" width="6" height="1" fill="#161616"/><rect x="3" y="1" width="2" height="1" fill="#161616"/><rect x="11" y="1" width="2" height="1" fill="#161616"/><rect x="2" y="2" width="1" height="1" fill="#161616"/><rect x="13" y="2" width="1" height="1" fill="#161616"/><rect x="1" y="3" width="1" height="2" fill="#161616"/><rect x="14" y="3" width="1" height="2" fill="#161616"/><rect x="0" y="5" width="1" height="6" fill="#161616"/><rect x="15" y="5" width="1" height="6" fill="#161616"/><rect x="1" y="11" width="1" height="2" fill="#161616"/><rect x="14" y="11" width="1" height="2" fill="#161616"/><rect x="2" y="13" width="1" height="1" fill="#161616"/><rect x="13" y="13" width="1" height="1" fill="#161616"/><rect x="3" y="14" width="2" height="1" fill="#161616"/><rect x="11" y="14" width="2" height="1" fill="#161616"/><rect x="5" y="15" width="6" height="1" fill="#161616"/>
  <rect x="5" y="1" width="6" height="1" fill="#2f73e8"/><rect x="3" y="2" width="10" height="1" fill="#2f73e8"/><rect x="2" y="3" width="12" height="2" fill="#2364c8"/><rect x="1" y="5" width="14" height="2" fill="#1d4fa8"/><rect x="1" y="8" width="14" height="3" fill="#f7f5ec"/><rect x="2" y="11" width="12" height="2" fill="#dfe6dc"/><rect x="3" y="13" width="10" height="1" fill="#c6d2c9"/><rect x="5" y="14" width="6" height="1" fill="#b3beb8"/>
  <rect x="3" y="2" width="2" height="4" fill="#ee344d"/><rect x="11" y="2" width="2" height="4" fill="#ee344d"/><rect x="1" y="7" width="14" height="1" fill="#161616"/><rect x="6" y="6" width="4" height="4" fill="#161616"/><rect x="7" y="7" width="2" height="2" fill="#f5f6f0"/><rect x="4" y="2" width="2" height="1" fill="#8ec1ff"/>
</svg>
