<svg width="330" height="462" viewBox="0 0 330 462" xmlns="http://www.w3.org/2000/svg" shape-rendering="crispEdges">
  <defs>
    <pattern id="cloth" width="12" height="12" patternUnits="userSpaceOnUse">
      <rect width="12" height="12" fill="#315b9c"/>
      <path d="M0 0h12v2H0zM0 6h12v2H0z" fill="#6e91bd" opacity=".18"/>
      <path d="M0 0h2v12H0zM6 0h2v12H6z" fill="#071a4a" opacity=".12"/>
      <path d="M0 12L12 0" stroke="#d8e9f2" stroke-width="2" opacity=".11"/>
    </pattern>

    <symbol id="P" viewBox="0 0 5 7">
      <rect width="4" height="1"/><rect y="1" width="1" height="1"/><rect x="4" y="1" width="1" height="2"/>
      <rect y="2" width="1" height="1"/><rect y="3" width="4" height="1"/><rect y="4" width="1" height="3"/>
    </symbol>
    <symbol id="I" viewBox="0 0 5 7">
      <rect width="5" height="1"/><rect x="2" y="1" width="1" height="5"/><rect y="6" width="5" height="1"/>
    </symbol>
    <symbol id="X" viewBox="0 0 5 7">
      <rect width="1" height="1"/><rect x="4" width="1" height="1"/><rect x="1" y="1" width="1" height="1"/><rect x="3" y="1" width="1" height="1"/>
      <rect x="2" y="2" width="1" height="3"/><rect x="1" y="5" width="1" height="1"/><rect x="3" y="5" width="1" height="1"/><rect y="6" width="1" height="1"/><rect x="4" y="6" width="1" height="1"/>
    </symbol>
    <symbol id="E" viewBox="0 0 5 7">
      <rect width="5" height="1"/><rect y="1" width="1" height="5"/><rect y="3" width="4" height="1"/><rect y="6" width="5" height="1"/>
    </symbol>
    <symbol id="L" viewBox="0 0 5 7">
      <rect width="1" height="7"/><rect y="6" width="5" height="1"/>
    </symbol>
    <symbol id="M" viewBox="0 0 5 7">
      <rect width="1" height="7"/><rect x="4" width="1" height="7"/><rect x="1" y="1" width="1" height="1"/><rect x="3" y="1" width="1" height="1"/><rect x="2" y="2" width="1" height="2"/>
    </symbol>
    <symbol id="O" viewBox="0 0 5 7">
      <rect x="1" width="3" height="1"/><rect y="1" width="1" height="5"/><rect x="4" y="1" width="1" height="5"/><rect x="1" y="6" width="3" height="1"/>
    </symbol>
    <symbol id="N" viewBox="0 0 5 7">
      <rect width="1" height="7"/><rect x="4" width="1" height="7"/><rect x="1" y="1" width="1" height="2"/><rect x="2" y="3" width="1" height="1"/><rect x="3" y="4" width="1" height="2"/>
    </symbol>
    <g id="pixelLogo">
      <use href="#P" x="0" width="5" height="7"/><use href="#I" x="6" width="5" height="7"/><use href="#X" x="12" width="5" height="7"/><use href="#E" x="18" width="5" height="7"/>
      <use href="#L" x="24" width="5" height="7"/><use href="#M" x="32" width="5" height="7"/><use href="#O" x="38" width="5" height="7"/><use href="#N" x="44" width="5" height="7"/>
    </g>
  </defs>

  <rect width="330" height="462" fill="#071a4a"/>
  <rect x="6" y="6" width="318" height="450" fill="#0f347f"/>
  <rect x="14" y="14" width="302" height="434" fill="url(#cloth)"/>

  <!-- fuzzy stitched outer edge -->
  <g fill="#0a2d74">
    <rect x="0" y="8" width="12" height="16"/><rect x="0" y="52" width="12" height="18"/><rect x="0" y="118" width="12" height="15"/><rect x="0" y="186" width="12" height="18"/><rect x="0" y="265" width="12" height="15"/><rect x="0" y="331" width="12" height="18"/><rect x="0" y="414" width="12" height="20"/>
    <rect x="318" y="18" width="12" height="18"/><rect x="318" y="82" width="12" height="14"/><rect x="318" y="152" width="12" height="20"/><rect x="318" y="236" width="12" height="15"/><rect x="318" y="304" width="12" height="18"/><rect x="318" y="380" width="12" height="20"/>
    <rect x="22" y="0" width="18" height="12"/><rect x="75" y="0" width="14" height="12"/><rect x="136" y="0" width="18" height="12"/><rect x="205" y="0" width="15" height="12"/><rect x="272" y="0" width="19" height="12"/>
    <rect x="42" y="450" width="18" height="12"/><rect x="111" y="450" width="16" height="12"/><rect x="173" y="450" width="19" height="12"/><rect x="238" y="450" width="16" height="12"/><rect x="293" y="450" width="18" height="12"/>
  </g>

  <rect x="24" y="28" width="282" height="22" fill="#a8c3d2" opacity=".56"/>
  <rect x="24" y="412" width="282" height="22" fill="#a8c3d2" opacity=".56"/>
  <rect x="31" y="38" width="10" height="386" fill="#d9e8f0" opacity=".45"/>
  <rect x="289" y="38" width="10" height="386" fill="#d9e8f0" opacity=".45"/>
  <rect x="44" y="78" width="5" height="304" fill="#d9e8f0" opacity=".58"/>
  <rect x="281" y="78" width="5" height="304" fill="#d9e8f0" opacity=".58"/>

  <!-- real block-pixel logo: shadow layers plus yellow face -->
  <g transform="translate(43 52) scale(5)" fill="#071a4a"><use href="#pixelLogo"/></g>
  <g transform="translate(48 57) scale(5)" fill="#071a4a" opacity=".7"><use href="#pixelLogo"/></g>
  <g transform="translate(43 47) scale(5)" fill="#ffc84d"><use href="#pixelLogo"/></g>
  <g transform="translate(287 410) rotate(180) scale(5)" fill="#071a4a"><use href="#pixelLogo"/></g>
  <g transform="translate(282 405) rotate(180) scale(5)" fill="#071a4a" opacity=".7"><use href="#pixelLogo"/></g>
  <g transform="translate(287 415) rotate(180) scale(5)" fill="#ffc84d"><use href="#pixelLogo"/></g>

  <!-- blocky white swirl behind ball -->
  <g opacity=".92">
    <rect x="126" y="156" width="78" height="12" fill="#e8f5fb"/>
    <rect x="108" y="168" width="114" height="18" fill="#cce3f0"/>
    <rect x="96" y="186" width="138" height="20" fill="#f4fbff"/>
    <rect x="88" y="206" width="154" height="26" fill="#bedbe9"/>
    <rect x="82" y="232" width="166" height="22" fill="#f4fbff"/>
    <rect x="90" y="254" width="150" height="26" fill="#cce3f0"/>
    <rect x="104" y="280" width="122" height="18" fill="#f4fbff"/>
    <rect x="122" y="298" width="84" height="12" fill="#bedbe9"/>
  </g>
  <g opacity=".55" fill="#315b9c">
    <rect x="110" y="166" width="26" height="20"/><rect x="196" y="186" width="32" height="18"/>
    <rect x="84" y="232" width="34" height="22"/><rect x="210" y="254" width="30" height="26"/>
    <rect x="126" y="292" width="20" height="12"/>
  </g>

  <!-- blocky poke ball -->
  <g>
    <rect x="132" y="188" width="66" height="12" fill="#10162d"/>
    <rect x="120" y="200" width="90" height="12" fill="#10162d"/>
    <rect x="114" y="212" width="102" height="18" fill="#10162d"/>
    <rect x="108" y="230" width="114" height="24" fill="#10162d"/>
    <rect x="114" y="254" width="102" height="18" fill="#10162d"/>
    <rect x="124" y="272" width="82" height="14" fill="#10162d"/>

    <rect x="136" y="194" width="58" height="12" fill="#ed2635"/>
    <rect x="124" y="206" width="82" height="18" fill="#ed2635"/>
    <rect x="118" y="224" width="94" height="10" fill="#ed2635"/>
    <rect x="118" y="238" width="94" height="10" fill="#f2dfbd"/>
    <rect x="124" y="248" width="82" height="18" fill="#dcc9a8"/>
    <rect x="136" y="266" width="58" height="12" fill="#dcc9a8"/>
    <rect x="118" y="232" width="94" height="8" fill="#10162d"/>

    <rect x="150" y="214" width="18" height="14" fill="#fff1c9" opacity=".72"/>
    <rect x="186" y="257" width="16" height="12" fill="#fff1c9" opacity=".76"/>
    <rect x="127" y="225" width="12" height="12" fill="#ff777b" opacity=".8"/>

    <rect x="146" y="218" width="38" height="38" fill="#10162d"/>
    <rect x="152" y="224" width="26" height="26" fill="#e8e0c8"/>
    <rect x="158" y="230" width="14" height="14" fill="#f8fbef"/>
  </g>

  <g opacity=".34" fill="#cfe5ef">
    <rect x="83" y="131" width="17" height="17"/><rect x="229" y="126" width="15" height="15"/>
    <rect x="67" y="265" width="10" height="10"/><rect x="254" y="275" width="12" height="12"/>
    <rect x="132" y="113" width="14" height="14"/><rect x="186" y="323" width="14" height="14"/>
  </g>

  <rect x="6" y="6" width="318" height="450" fill="none" stroke="#06182f" stroke-width="4"/>
</svg>
